<?xml version="1.0" encoding="UTF-8"?>
<svg width="700pt" height="700pt" version="1.1" viewBox="0 0 700 700" xmlns="http://www.w3.org/2000/svg">
 <path d="m350 0c-73.621 0-133.44 59.816-133.44 133.44v40.125h-48.398c-4.6406 0.003906-9.0938 1.8477-12.375 5.1289s-5.125 7.7305-5.125 12.371v351.44c0 4.6406 1.8438 9.0938 5.125 12.375s7.7344 5.125 12.375 5.125h363.71c4.6328-0.007812 9.0781-1.8594 12.352-5.1367 3.2734-3.2812 5.1133-7.7266 5.1133-12.363v-351.44c0-4.6328-1.8398-9.0781-5.1133-12.359-3.2734-3.2812-7.7188-5.1289-12.352-5.1406h-48.434v-40.125c0-73.621-59.816-133.44-133.44-133.44zm0 35c54.836 0 98.438 43.602 98.438 98.438v40.125h-196.88v-40.125c0-54.836 43.602-98.438 98.438-98.438zm-164.34 173.57h30.898v67.367c-0.066406 4.6836 1.75 9.1953 5.0391 12.531 3.2891 3.3359 7.7773 5.2148 12.461 5.2148s9.1719-1.8789 12.461-5.2148c3.2891-3.3359 5.1055-7.8477 5.0391-12.531v-67.367h196.88v67.367c-0.066406 4.6836 1.7461 9.1992 5.0352 12.535 3.2891 3.3359 7.7812 5.2148 12.465 5.2148s9.1758-1.8789 12.465-5.2148c3.2891-3.3359 5.1016-7.8516 5.0352-12.535v-67.367h30.898v316.43h-328.67z"/>
</svg>
