<?xml version="1.0" encoding="UTF-8"?>
<svg width="700pt" height="700pt" version="1.1" viewBox="0 0 700 700" xmlns="http://www.w3.org/2000/svg">
 <path d="m443.88 298.29-120.29 119.48c-9.7539 10.566-26.008 10.566-35.762 0-9.7539-9.7539-9.7539-26.008 0-35.762l102.41-101.6-102.41-102.41c-9.7539-9.7539-9.7539-26.008 0-35.762 9.7539-9.7539 26.008-9.7539 35.762 0l120.29 119.48c9.7539 10.566 9.7539 26.008 0 36.574zm-373.88-17.883c0 77.215 31.699 147.11 82.09 197.5 50.391 51.203 120.29 82.09 198.32 82.09 77.215 0 147.11-30.887 197.5-82.09 51.203-50.391 82.09-120.29 82.09-197.5 0-78.027-30.887-147.93-82.09-198.32-50.391-50.391-120.29-82.09-197.5-82.09-78.027 0-147.93 31.699-198.32 82.09s-82.09 120.29-82.09 198.32z" fill-rule="evenodd"/>
</svg>
