<?xml version="1.0" encoding="UTF-8"?>
<svg width="700pt" height="700pt" version="1.1" viewBox="0 0 700 700" xmlns="http://www.w3.org/2000/svg">
 <path d="m256.12 298.45 119.71 119.71c10.66 9.8398 26.238 9.8398 36.074 0 9.8398-9.8398 9.8398-26.238 0-36.074l-101.67-101.67 101.67-102.49c9.8398-9.8398 9.8398-26.238 0-36.074-9.8398-9.8398-25.418-9.8398-36.074 0l-119.71 120.53c-9.8398 9.8398-9.8398 25.418 0 36.074zm373.88-18.039c0 77.07-31.156 146.77-81.992 197.6-50.836 50.836-120.53 81.992-197.6 81.992-77.891 0-147.59-31.156-198.42-81.992-50.836-50.836-81.992-120.53-81.992-197.6 0-77.891 31.156-147.59 81.992-198.42 50.836-50.836 120.53-81.992 198.42-81.992 77.07 0 146.77 31.156 197.6 81.992 50.836 50.836 81.992 120.53 81.992 198.42z" fill-rule="evenodd"/>
</svg>
