<?xml version="1.0" encoding="UTF-8"?>
<svg width="700pt" height="700pt" version="1.1" viewBox="0 0 700 700" xmlns="http://www.w3.org/2000/svg">
 <path d="m241.91 179.92c0-23.691 9.4141-46.41 26.164-63.16s39.469-26.16 63.156-26.16c23.691 0 46.41 9.4102 63.16 26.16s26.16 39.469 26.16 63.16c0 23.688-9.4102 46.406-26.16 63.156s-39.469 26.16-63.16 26.16c-23.688 0-46.406-9.4102-63.156-26.16s-26.16-39.469-26.164-63.156zm135.8 237.72c0.039062-10.348 3.8828-20.32 10.805-28.016 6.918-7.6953 16.43-12.574 26.715-13.703 0.96484-9.5703 5.2422-18.504 12.094-25.25 6.8516-6.75 15.844-10.895 25.426-11.711-18.121-26.18-47.957-41.777-79.797-41.723h-83.441c-25.98 0.03125-50.891 10.363-69.266 28.738-18.371 18.371-28.707 43.281-28.734 69.262v59.082c-0.035157 3.7227 1.4258 7.3047 4.0586 9.9414 2.6367 2.6328 6.2188 4.0938 9.9414 4.0586h211.96c-1.3008-2.7227-2.0586-5.668-2.2422-8.6797-10.328-1.1523-19.867-6.0742-26.789-13.824-6.9258-7.75-10.746-17.785-10.73-28.176zm116.78-13.887h-23.363v-23.363c0-7.7344-6.2695-14-14-14-7.7344 0-14 6.2656-14 14v23.363h-23.367c-7.7305 0-14 6.2695-14 14 0 7.7344 6.2695 14 14 14h23.367v23.367c0 7.7305 6.2656 14 14 14 7.7305 0 14-6.2695 14-14v-23.367h23.363c7.7305 0 14-6.2656 14-14 0-7.7305-6.2695-14-14-14z"/>
</svg>
